<mxfile host="app.diagrams.net" modified="2024-03-21T09:44:10.329Z" agent="Mozilla/5.0 (Windows NT 10.0; Win64; x64) AppleWebKit/537.36 (KHTML, like Gecko) Chrome/122.0.0.0 Safari/537.36" etag="h2jg0ypx6gxJOJfnZJYN" version="24.0.7" type="github">
  <diagram id="R2lEEEUBdFMjLlhIrx00" name="Page-1">
    <mxGraphModel dx="2524" dy="746" grid="1" gridSize="10" guides="1" tooltips="1" connect="1" arrows="1" fold="1" page="1" pageScale="1" pageWidth="850" pageHeight="1100" math="0" shadow="0" extFonts="Permanent Marker^https://fonts.googleapis.com/css?family=Permanent+Marker">
      <root>
        <mxCell id="0" />
        <mxCell id="1" parent="0" />
        <mxCell id="aOJ2N6pHfwYPPorcYYFL-19" value="患者" style="whiteSpace=wrap;html=1;align=center;" vertex="1" parent="1">
          <mxGeometry x="240" y="590" width="100" height="40" as="geometry" />
        </mxCell>
        <mxCell id="aOJ2N6pHfwYPPorcYYFL-20" value="就诊记录&lt;div&gt;(初诊/复诊)&lt;/div&gt;" style="whiteSpace=wrap;html=1;align=center;" vertex="1" parent="1">
          <mxGeometry x="80" y="700" width="100" height="40" as="geometry" />
        </mxCell>
        <mxCell id="aOJ2N6pHfwYPPorcYYFL-21" value="" style="edgeStyle=entityRelationEdgeStyle;fontSize=12;html=1;endArrow=ERzeroToMany;startArrow=ERmandOne;rounded=0;entryX=1;entryY=0.75;entryDx=0;entryDy=0;exitX=0;exitY=0.5;exitDx=0;exitDy=0;" edge="1" parent="1" source="aOJ2N6pHfwYPPorcYYFL-19" target="aOJ2N6pHfwYPPorcYYFL-20">
          <mxGeometry width="100" height="100" relative="1" as="geometry">
            <mxPoint x="220" y="740" as="sourcePoint" />
            <mxPoint x="320" y="640" as="targetPoint" />
          </mxGeometry>
        </mxCell>
        <mxCell id="aOJ2N6pHfwYPPorcYYFL-22" value="表单" style="whiteSpace=wrap;html=1;align=center;" vertex="1" parent="1">
          <mxGeometry x="280" y="1010" width="100" height="40" as="geometry" />
        </mxCell>
        <mxCell id="aOJ2N6pHfwYPPorcYYFL-25" value="元件" style="whiteSpace=wrap;html=1;align=center;" vertex="1" parent="1">
          <mxGeometry x="600" y="1000" width="100" height="40" as="geometry" />
        </mxCell>
        <mxCell id="aOJ2N6pHfwYPPorcYYFL-27" value="表单-元件" style="whiteSpace=wrap;html=1;align=center;" vertex="1" parent="1">
          <mxGeometry x="440" y="850" width="100" height="40" as="geometry" />
        </mxCell>
        <mxCell id="aOJ2N6pHfwYPPorcYYFL-29" value="" style="edgeStyle=entityRelationEdgeStyle;fontSize=12;html=1;endArrow=ERzeroToMany;startArrow=ERmandOne;rounded=0;entryX=0;entryY=0.5;entryDx=0;entryDy=0;exitX=1;exitY=0.5;exitDx=0;exitDy=0;" edge="1" parent="1" source="aOJ2N6pHfwYPPorcYYFL-22" target="aOJ2N6pHfwYPPorcYYFL-27">
          <mxGeometry width="100" height="100" relative="1" as="geometry">
            <mxPoint x="310" y="960" as="sourcePoint" />
            <mxPoint x="400" y="860" as="targetPoint" />
          </mxGeometry>
        </mxCell>
        <mxCell id="aOJ2N6pHfwYPPorcYYFL-31" value="" style="edgeStyle=entityRelationEdgeStyle;fontSize=12;html=1;endArrow=ERzeroToMany;startArrow=ERmandOne;rounded=0;entryX=1;entryY=0.5;entryDx=0;entryDy=0;exitX=0;exitY=0.25;exitDx=0;exitDy=0;" edge="1" parent="1" source="aOJ2N6pHfwYPPorcYYFL-25" target="aOJ2N6pHfwYPPorcYYFL-27">
          <mxGeometry width="100" height="100" relative="1" as="geometry">
            <mxPoint x="750" y="930" as="sourcePoint" />
            <mxPoint x="850" y="830" as="targetPoint" />
          </mxGeometry>
        </mxCell>
        <mxCell id="aOJ2N6pHfwYPPorcYYFL-33" value="表单组" style="whiteSpace=wrap;html=1;align=center;" vertex="1" parent="1">
          <mxGeometry x="-70" y="970" width="100" height="40" as="geometry" />
        </mxCell>
        <mxCell id="aOJ2N6pHfwYPPorcYYFL-35" value="元件在当前表单中的属性：名称、是否必填、最大长度&amp;nbsp; 顺序 元件类型不同，它的配置项也不同）" style="text;html=1;align=center;verticalAlign=middle;resizable=0;points=[];autosize=1;strokeColor=none;fillColor=none;" vertex="1" parent="1">
          <mxGeometry x="265" y="810" width="540" height="30" as="geometry" />
        </mxCell>
        <mxCell id="aOJ2N6pHfwYPPorcYYFL-38" value="模板-表单" style="whiteSpace=wrap;html=1;align=center;" vertex="1" parent="1">
          <mxGeometry x="120" y="900" width="100" height="40" as="geometry" />
        </mxCell>
        <mxCell id="aOJ2N6pHfwYPPorcYYFL-40" value="" style="edgeStyle=entityRelationEdgeStyle;fontSize=12;html=1;endArrow=ERzeroToMany;startArrow=ERmandOne;rounded=0;exitX=1;exitY=0.5;exitDx=0;exitDy=0;" edge="1" parent="1" source="aOJ2N6pHfwYPPorcYYFL-33" target="aOJ2N6pHfwYPPorcYYFL-38">
          <mxGeometry width="100" height="100" relative="1" as="geometry">
            <mxPoint x="410" y="1030" as="sourcePoint" />
            <mxPoint x="470" y="880" as="targetPoint" />
          </mxGeometry>
        </mxCell>
        <mxCell id="aOJ2N6pHfwYPPorcYYFL-41" value="" style="edgeStyle=entityRelationEdgeStyle;fontSize=12;html=1;endArrow=ERzeroToMany;startArrow=ERmandOne;rounded=0;entryX=1;entryY=0.5;entryDx=0;entryDy=0;exitX=0;exitY=0.5;exitDx=0;exitDy=0;" edge="1" parent="1" source="aOJ2N6pHfwYPPorcYYFL-22" target="aOJ2N6pHfwYPPorcYYFL-38">
          <mxGeometry width="100" height="100" relative="1" as="geometry">
            <mxPoint x="630" y="1020" as="sourcePoint" />
            <mxPoint x="570" y="880" as="targetPoint" />
          </mxGeometry>
        </mxCell>
        <mxCell id="aOJ2N6pHfwYPPorcYYFL-42" value="表单在当前模板的顺序等属性" style="text;html=1;align=center;verticalAlign=middle;resizable=0;points=[];autosize=1;strokeColor=none;fillColor=none;" vertex="1" parent="1">
          <mxGeometry x="90" y="870" width="180" height="30" as="geometry" />
        </mxCell>
        <mxCell id="aOJ2N6pHfwYPPorcYYFL-48" value="选择表单/组" style="text;html=1;align=center;verticalAlign=middle;resizable=0;points=[];autosize=1;strokeColor=none;fillColor=none;" vertex="1" parent="1">
          <mxGeometry x="30" y="640" width="90" height="30" as="geometry" />
        </mxCell>
        <mxCell id="aOJ2N6pHfwYPPorcYYFL-49" value="就诊-表单" style="whiteSpace=wrap;html=1;align=center;" vertex="1" parent="1">
          <mxGeometry x="-80" y="770" width="100" height="40" as="geometry" />
        </mxCell>
        <mxCell id="aOJ2N6pHfwYPPorcYYFL-51" value="" style="edgeStyle=entityRelationEdgeStyle;fontSize=12;html=1;endArrow=ERzeroToMany;startArrow=ERmandOne;rounded=0;entryX=1;entryY=0.5;entryDx=0;entryDy=0;exitX=0;exitY=0.5;exitDx=0;exitDy=0;" edge="1" parent="1" source="aOJ2N6pHfwYPPorcYYFL-20" target="aOJ2N6pHfwYPPorcYYFL-49">
          <mxGeometry width="100" height="100" relative="1" as="geometry">
            <mxPoint x="-80" y="700" as="sourcePoint" />
            <mxPoint x="20" y="600" as="targetPoint" />
            <Array as="points">
              <mxPoint x="-30" y="740" />
            </Array>
          </mxGeometry>
        </mxCell>
        <mxCell id="aOJ2N6pHfwYPPorcYYFL-52" value="" style="edgeStyle=entityRelationEdgeStyle;fontSize=12;html=1;endArrow=ERzeroToMany;startArrow=ERmandOne;rounded=0;entryX=1;entryY=0.75;entryDx=0;entryDy=0;exitX=0;exitY=0.25;exitDx=0;exitDy=0;" edge="1" parent="1" source="aOJ2N6pHfwYPPorcYYFL-38" target="aOJ2N6pHfwYPPorcYYFL-49">
          <mxGeometry width="100" height="100" relative="1" as="geometry">
            <mxPoint x="90" y="730" as="sourcePoint" />
            <mxPoint x="30" y="800" as="targetPoint" />
            <Array as="points">
              <mxPoint x="-20" y="750" />
            </Array>
          </mxGeometry>
        </mxCell>
      </root>
    </mxGraphModel>
  </diagram>
</mxfile>
